<?xml version="1.0" encoding="UTF-8" standalone="no"?>
<!DOCTYPE svg PUBLIC "-//W3C//DTD SVG 1.1//EN"
 "http://www.w3.org/Graphics/SVG/1.1/DTD/svg11.dtd">
<!-- Generated by graphviz version 2.44.1 (20200629.0846)
 -->
<!-- Title: TD Pages: 1 -->
<svg width="578pt" height="188pt"
 viewBox="0.00 0.00 578.17 188.00" xmlns="http://www.w3.org/2000/svg" xmlns:xlink="http://www.w3.org/1999/xlink">
<g id="graph0" class="graph" transform="scale(1 1) rotate(0) translate(4 184)">
<title>TD</title>
<polygon fill="white" stroke="transparent" points="-4,4 -4,-184 574.17,-184 574.17,4 -4,4"/>
<!-- A -->
<g id="node1" class="node">
<title>A</title>
<ellipse fill="none" stroke="black" cx="187.28" cy="-162" rx="38.86" ry="18"/>
<text text-anchor="middle" x="187.28" y="-157.8" font-family="Times New Roman,serif" font-size="14.00">Cliente</text>
</g>
<!-- B -->
<g id="node2" class="node">
<title>B</title>
<ellipse fill="none" stroke="black" cx="125.28" cy="-90" rx="34.21" ry="18"/>
<text text-anchor="middle" x="125.28" y="-85.8" font-family="Times New Roman,serif" font-size="14.00">Autos</text>
</g>
<!-- A&#45;&#45;B -->
<g id="edge1" class="edge">
<title>A&#45;&#45;B</title>
<path fill="none" stroke="black" d="M173.21,-145.12C163.06,-133.66 149.42,-118.26 139.29,-106.82"/>
</g>
<!-- C -->
<g id="node3" class="node">
<title>C</title>
<ellipse fill="none" stroke="black" cx="315.28" cy="-90" rx="44" ry="18"/>
<text text-anchor="middle" x="315.28" y="-85.8" font-family="Times New Roman,serif" font-size="14.00">Facturas</text>
</g>
<!-- A&#45;&#45;C -->
<g id="edge2" class="edge">
<title>A&#45;&#45;C</title>
<path fill="none" stroke="black" d="M211.35,-147.83C233.8,-135.56 267.16,-117.31 290,-104.83"/>
</g>
<!-- D -->
<g id="node4" class="node">
<title>D</title>
<ellipse fill="none" stroke="black" cx="29.28" cy="-18" rx="29.05" ry="18"/>
<text text-anchor="middle" x="29.28" y="-13.8" font-family="Times New Roman,serif" font-size="14.00">Ford</text>
</g>
<!-- B&#45;&#45;D -->
<g id="edge3" class="edge">
<title>B&#45;&#45;D</title>
<path fill="none" stroke="black" d="M105.85,-74.83C88.76,-62.37 64.06,-44.36 47.38,-32.2"/>
</g>
<!-- E -->
<g id="node5" class="node">
<title>E</title>
<ellipse fill="none" stroke="black" cx="125.28" cy="-18" rx="49.24" ry="18"/>
<text text-anchor="middle" x="125.28" y="-13.8" font-family="Times New Roman,serif" font-size="14.00">Chevrolet</text>
</g>
<!-- B&#45;&#45;E -->
<g id="edge4" class="edge">
<title>B&#45;&#45;E</title>
<path fill="none" stroke="black" d="M125.28,-71.7C125.28,-60.85 125.28,-46.92 125.28,-36.1"/>
</g>
<!-- F -->
<g id="node6" class="node">
<title>F</title>
<ellipse fill="none" stroke="black" cx="249.28" cy="-18" rx="56.78" ry="18"/>
<text text-anchor="middle" x="249.28" y="-13.8" font-family="Times New Roman,serif" font-size="14.00">Factura 101</text>
</g>
<!-- C&#45;&#45;F -->
<g id="edge5" class="edge">
<title>C&#45;&#45;F</title>
<path fill="none" stroke="black" d="M299.97,-72.76C289.46,-61.62 275.55,-46.87 264.96,-35.63"/>
</g>
<!-- G -->
<g id="node7" class="node">
<title>G</title>
<ellipse fill="none" stroke="black" cx="381.28" cy="-18" rx="56.78" ry="18"/>
<text text-anchor="middle" x="381.28" y="-13.8" font-family="Times New Roman,serif" font-size="14.00">Factura 256</text>
</g>
<!-- C&#45;&#45;G -->
<g id="edge6" class="edge">
<title>C&#45;&#45;G</title>
<path fill="none" stroke="black" d="M330.58,-72.76C341.09,-61.62 355,-46.87 365.59,-35.63"/>
</g>
<!-- H -->
<g id="node8" class="node">
<title>H</title>
<ellipse fill="none" stroke="black" cx="513.28" cy="-18" rx="56.78" ry="18"/>
<text text-anchor="middle" x="513.28" y="-13.8" font-family="Times New Roman,serif" font-size="14.00">Factura 735</text>
</g>
<!-- C&#45;&#45;H -->
<g id="edge7" class="edge">
<title>C&#45;&#45;H</title>
<path fill="none" stroke="black" d="M347.53,-77.6C382.92,-65.08 439.63,-45.04 476.66,-31.94"/>
</g>
</g>
</svg>
